# xmcd
#
# Track frame offsets: 
#        150
#        12982
#        25787
#        37077
#        48937
#        62689
#        77375
#        90455
#        103952
#        115167
#
# Disc length: 1687 seconds
#
# Revision: 1
# Processed by: cddbd v1.5.2PL0 Copyright (c) Steve Scherf et al.
# Submitted via: ExactAudioCopy v1.3
#
DISCID=7306950a
DTITLE=Cardenales De Nuevo Leon - Si Yo Fuera El
DYEAR=1999
DGENRE=Norteño
TTITLE0=Si Yo Fuera El
TTITLE1=Ganas De Llorar
TTITLE2=Solo Te Ame
TTITLE3=La Tracalera
TTITLE4=Vesrtido Blanco
TTITLE5=Mar De Penas
TTITLE6=Nadie Sabe Lo Que Tiene
TTITLE7=Un Secreto En La Lluvia
TTITLE8=Fue Puro Cuento
TTITLE9=El Cardenal
EXTD=
EXTT0=
EXTT1=
EXTT2=
EXTT3=
EXTT4=
EXTT5=
EXTT6=
EXTT7=
EXTT8=
EXTT9=
PLAYORDER=
